<?xml version="1.0" encoding="UTF-8"?>
<svg width="50px" height="32px" viewBox="0 0 50 32" version="1.1" xmlns="http://www.w3.org/2000/svg" xmlns:xlink="http://www.w3.org/1999/xlink">
    <title>9831F228-9258-479C-8DA3-D2B2F49A3AD0</title>
    <defs>
        <rect id="path-1" x="0" y="0" width="48" height="30" rx="4"></rect>
    </defs>
    <g id="Page-1" stroke="none" stroke-width="1" fill="none" fill-rule="evenodd">
        <g id="Product-v3-logotypy" transform="translate(-662.000000, -2041.000000)">
            <g id="Payment/Klarna-Copy-2" transform="translate(662.000000, 2041.000000)">
                <g id="Delivery/FanCourier" transform="translate(1.000000, 1.000000)">
                    <mask id="mask-2" fill="white">
                        <use xlink:href="#path-1"></use>
                    </mask>
                    <rect stroke="#EDEDED" x="-0.5" y="-0.5" width="49" height="31" rx="4"></rect>
                </g>
                <g id="fan-courier" transform="translate(10.000000, 6.000000)" fill-rule="nonzero">
                    <polyline id="Path" fill="#231F20" points="18.679002 14.3087106 18.2682673 14.3087106 18.2682673 15.3334865 17.1690064 14.2730023 16.2264994 14.2730023 16.2264994 16.9775306 16.637234 16.9775306 16.637234 15.7502451 17.9061461 16.9775306 18.679002 16.9775306 18.679002 14.3087106"></polyline>
                    <path d="M17.6645668,17.992737 C17.6645668,17.9090928 17.6521653,17.8485737 17.6402599,17.8008473 C17.6283546,17.7408202 17.5921425,17.6812852 17.543529,17.6330667 C17.4835061,17.5730397 17.3862791,17.537122 17.2657375,17.537122 C17.1566051,17.537122 17.0479687,17.5730397 16.9636391,17.6448753 C16.8669082,17.717203 16.830696,17.8131479 16.830696,17.93271 C16.830696,18.0886819 16.8912149,18.2082439 17.0360633,18.2682709 C17.1089837,18.3041887 17.2052185,18.328298 17.3138549,18.328298 C17.4229873,18.328298 17.5316237,18.3164894 17.6521653,18.2800795 L17.6521653,18.1245996 C17.5797411,18.1364082 17.5192222,18.1482168 17.4711047,18.1482168 C17.3624684,18.1482168 17.3019496,18.1004904 17.3019496,17.992737 L17.6645668,17.992737 Z M17.4827125,17.8841963 L17.3019496,17.8841963 C17.3156784,17.770465 17.343708,17.7049024 17.3854665,17.7049024 C17.441526,17.7216275 17.4689837,17.770465 17.4827125,17.8841963" id="Shape" fill="#939598"></path>
                    <polyline id="Path" fill="#939598" points="16.504787 17.5610904 15.9973213 17.5610904 15.9973213 18.2997118 16.504787 18.2997118 16.504787 17.5610904"></polyline>
                    <path d="M18.5465549,17.7518601 C18.582767,17.7278917 18.6308846,17.716152 18.6914034,17.716152 L18.6914034,17.5610904 C18.6189792,17.5610904 18.5465549,17.5850589 18.4860361,17.6090274 L18.4860361,17.5610904 L17.9785704,17.5610904 L17.9785704,18.2997118 L18.4860361,18.2997118 L18.4860361,17.8829532 C18.4860361,17.8232766 18.5103428,17.7875684 18.5465549,17.7518601" id="Path" fill="#939598"></path>
                    <polyline id="Path" fill="#939598" points="16.504787 17.2989043 15.9973213 17.2989043 15.9973213 17.5131533 16.504787 17.5131533 16.504787 17.2989043"></polyline>
                    <path d="M15.0305075,14.2730023 L14.3295799,14.2730023 L13.3027432,16.9775306 L13.74969,16.9775306 L13.8583263,16.6913759 L14.5835607,16.6913759 L14.6559849,16.9775306 L16.1302644,16.9775306 L15.0305075,14.2730023 Z M14.462523,16.286357 L14.0155762,16.286357 L14.2690609,15.5951835 L14.462523,16.286357 Z" id="Shape" fill="#231F20"></path>
                    <polyline id="Path" fill="#231F20" points="13.230319 15.7737244 13.230319 15.3687056 12.6747359 15.3687056 12.6747359 14.6897609 13.230319 14.6897609 13.230319 14.2730023 11.2971874 14.2730023 11.2971874 16.9775306 12.6747359 16.9775306 12.6747359 15.7737244 13.230319 15.7737244"></polyline>
                    <path d="M14.0155762,18.0492653 L14.0155762,17.5610904 L13.5443226,17.5610904 L13.5443226,18.0614942 C13.5443226,18.1446502 13.5686294,18.2160666 13.6286523,18.2640036 C13.6896671,18.3119407 13.7620914,18.33542 13.8583263,18.33542 C13.9550573,18.33542 14.0517883,18.3119407 14.136614,18.2640036 L14.136614,18.2997118 L14.6435835,18.2997118 L14.6435835,17.5610904 L14.136614,17.5610904 L14.136614,18.0492653 C14.136614,18.0732339 14.136614,18.0854627 14.1247086,18.0972024 C14.1123071,18.1094312 14.1004018,18.1094312 14.0760951,18.1094312 C14.039387,18.1094312 14.0155762,18.0972024 14.0155762,18.0492653" id="Path" fill="#939598"></path>
                    <path d="M14.9580833,17.5610904 L14.9580833,18.2997118 L15.4774542,18.2997118 L15.4774542,17.8829532 C15.4774542,17.8232766 15.4893596,17.7875684 15.5379732,17.7518601 C15.5741852,17.7278917 15.6227988,17.716152 15.6828216,17.716152 L15.6828216,17.5610904 C15.598492,17.5610904 15.5255718,17.5850589 15.4774542,17.6090274 L15.4774542,17.5610904 L14.9580833,17.5610904" id="Path" fill="#939598"></path>
                    <path d="M12.3964483,17.6448753 C12.3002133,17.717203 12.2515999,17.8131479 12.2515999,17.93271 C12.2515999,18.0404633 12.3002133,18.1364082 12.3964483,18.2200525 C12.4936754,18.2923801 12.6018156,18.328298 12.7347587,18.328298 C12.8677018,18.328298 12.9887395,18.2923801 13.0730692,18.2200525 C13.1822016,18.1364082 13.230319,18.0404633 13.230319,17.93271 C13.230319,17.8131479 13.1822016,17.717203 13.0730692,17.6448753 C12.9887395,17.5730397 12.8677018,17.537122 12.7347587,17.537122 C12.6018156,17.537122 12.4936754,17.5730397 12.3964483,17.6448753 Z M12.6747359,18.112791 L12.6747359,17.776738 C12.6747359,17.7408202 12.7071113,17.717203 12.756349,17.717203 C12.8224489,17.717203 12.8554988,17.7408202 12.8554988,17.776738 L12.8554988,18.112791 C12.8554988,18.1482168 12.8224489,18.172326 12.756349,18.172326 C12.7071113,18.172326 12.6747359,18.1482168 12.6747359,18.112791" id="Shape" fill="#939598"></path>
                    <path d="M11.9256907,17.537122 L11.7927476,17.537122 C11.6474032,17.537122 11.5506721,17.5610904 11.4663426,17.6207671 C11.3696116,17.6921835 11.3214942,17.7875684 11.3214942,17.9186615 C11.3214942,18.0492653 11.3696116,18.1446502 11.4663426,18.2160666 C11.5506721,18.2757433 11.6474032,18.2997118 11.7927476,18.2997118 L11.8894787,18.2997118 L11.8894787,18.156879 L11.804653,18.156879 C11.7684409,18.1446502 11.7560395,18.1211709 11.7560395,18.0972024 L11.7560395,17.7396313 C11.7560395,17.7278917 11.7684409,17.716152 11.7684409,17.7039232 C11.7803463,17.6921835 11.804653,17.6804438 11.8165583,17.6804438 L11.901384,17.6921835 L11.9256907,17.537122" id="Path" fill="#939598"></path>
                    <polyline id="Path" fill="#A8C5E7" points="15.0305075 2.04906295 15.0181061 2.04906295 12.807679 2.31124908 15.1272385 2.75197612 17.4835061 2.35869691 15.0305075 2.04906295"></polyline>
                    <polyline id="Path" fill="#11578C" points="11.998115 2.32298876 11.9857137 2.32298876 9.17059382 2.66833088 9.14628709 2.66833088 9.14628709 9.28070442 9.59372986 9.11390319 9.59372986 2.75197612 11.998115 2.45408183 11.998115 2.32298876"></polyline>
                    <polyline id="Path" fill="#A8C5E7" points="12.3602361 2.40663399 11.998115 2.45408183 9.59372986 2.75197612 11.7560395 3.32379622 14.6678903 2.83513223 12.807679 2.48978998 12.3602361 2.40663399"></polyline>
                    <polyline id="Path" fill="#0F2345" points="12.807679 2.31124908 12.807679 2.48978998 14.6678903 2.83513223 14.6678903 3.08557869 15.1272385 2.9906829 15.1272385 2.75197612 12.807679 2.31124908"></polyline>
                    <polyline id="Path" fill="#A8C5E7" points="15.5741852 3.08557869 15.1272385 2.9906829 14.6678903 3.08557869 12.2034823 3.50282637 15.0181061 4.2414477 17.7975099 3.50282637 15.5741852 3.08557869"></polyline>
                    <polyline id="Path" fill="#11578C" points="15.1272385 2.9906829 15.5741852 3.08557869 15.5741852 2.79942395 17.4835061 2.48978998 17.4835061 2.35869691 15.1272385 2.75197612 15.1272385 2.9906829"></polyline>
                    <polyline id="Path" fill="#11578C" points="14.6678903 3.08557869 14.6678903 2.83513223 11.7560395 3.32379622 11.7560395 10.6273432 12.2034823 10.4248339 12.2034823 3.50282637 14.6678903 3.08557869"></polyline>
                    <polyline id="Path" fill="#0F2345" points="15.5741852 2.79942395 15.5741852 3.08557869 17.7975099 3.50282637 17.7975099 10.4126049 18.256362 10.6151144 18.256362 3.30031687 15.5741852 2.79942395"></polyline>
                    <polyline id="Path" fill="#0F2345" points="15.0181061 4.2414477 12.2034823 3.50282637 12.2034823 10.7941445 15.0181061 12.2234503 15.0181061 4.2414477"></polyline>
                    <path d="M9.14628709,2.66833088 L9.17059382,2.66833088 L0,0 L0.12103775,1.84655344 L4.32561139,3.82420001 C2.93615758,3.27634839 1.88551016,2.85958983 1.14837049,2.56169554 L1.18458257,3.31205654 L1.41376067,3.43092081 C3.16583171,4.33634349 4.54338016,5.0157773 5.54591002,5.48047294 C3.97539567,4.78929932 2.91185085,4.32460381 2.36866912,4.08638615 L2.40438517,4.93213207 L2.68267275,5.06322513 C2.76749842,5.11067309 2.86373329,5.15861005 2.94855896,5.20605788 C3.06910068,5.26622376 3.19013843,5.31367159 3.31068016,5.37285923 L7.56386726,7.48159874 L3.51604743,5.62330569 L3.55275566,6.45731193 L9.13438174,9.28070442 L9.14628709,9.28070442 L9.14628709,2.66833088" id="Path" fill="#0F2345"></path>
                    <polyline id="Path" fill="#0F2345" points="9.59372986 9.11390319 9.59372986 9.5194112 11.7560395 10.6273432 11.7560395 3.32379622 9.59372986 2.75197612 9.59372986 9.11390319"></polyline>
                    <polygon id="Path" fill="#A8C5E7" points="9.17059382 2.66833088 11.9857137 2.32298876 0 0"></polygon>
                    <polyline id="Path" fill="#11578C" points="15.0181061 4.2414477 15.0181061 12.2234503 17.7975099 10.8058841 17.7975099 3.50282637 15.0181061 4.2414477"></polyline>
                    <path d="M26.7379334,5.3376402 C26.8470658,5.27796344 26.9552062,5.23002648 27.0762439,5.17083885 C27.1610696,5.12290189 27.2578005,5.07496481 27.3545315,5.03974578 L27.6323231,4.89642391 L27.6804405,4.05067799 C27.1248574,4.28889565 26.0732179,4.76533084 24.5027036,5.45650434 C25.4933281,4.99180882 26.8708765,4.30063533 28.6348529,3.39521266 L28.8526217,3.27634839 L28.9007391,2.51375846 C28.1635994,2.82339255 27.112456,3.24064023 25.7234982,3.80023154 L29.9156705,1.79861649 L30,0 L20.9023265,2.64485153 L20.9023265,9.25673594 L26.4839526,6.40986409 L26.5206608,5.58759741 L22.4852423,7.44589059 L26.7379334,5.3376402" id="Path" fill="#11578C"></path>
                    <polyline id="Path" fill="#A8C5E7" points="17.9180515 2.40663399 17.4835061 2.48978998 15.5741852 2.79942395 18.256362 3.30031687 20.4553798 2.72849676 18.2682673 2.44234215 17.9180515 2.40663399"></polyline>
                    <polyline id="Path" fill="#0F2345" points="18.2682673 2.34695724 18.2682673 2.44234215 20.4553798 2.72849676 20.4553798 9.07819491 20.9023265 9.25673594 20.9023265 2.64485153 18.3168808 2.33472844 18.2925741 2.33472844 18.2682673 2.34695724"></polyline>
                    <polyline id="Path" fill="#A8C5E7" points="18.2925741 2.33472844 18.3168808 2.33472844 20.9023265 2.64485153 30 0 18.2925741 2.33472844"></polyline>
                    <polyline id="Path" fill="#11578C" points="20.4553798 2.72849676 18.256362 3.30031687 18.256362 10.6151144 20.4553798 9.48321379 20.4553798 2.72849676"></polyline>
                    <path d="M10.5550871,19.2477022 C10.5550871,19.3249501 10.5332607,19.3864533 10.4881195,19.4322116 C10.4434744,19.4774779 10.3814673,19.500111 10.3025944,19.500111 C10.2242175,19.500111 10.1622105,19.4774779 10.1175654,19.4322116 C10.0729204,19.3864533 10.0505977,19.3249501 10.0505977,19.2477022 C10.0505977,19.1694702 10.0729204,19.1079671 10.1175654,19.0622089 C10.1622105,19.0174346 10.2242175,18.9943094 10.3025944,18.9943094 C10.3809713,18.9943094 10.4429783,19.0174346 10.4876235,19.0622089 C10.5327645,19.1079671 10.5550871,19.1694702 10.5550871,19.2477022 Z M10.38742,19.3702164 C10.4003176,19.3554557 10.4092465,19.3382348 10.4151992,19.3180618 C10.4211519,19.2978888 10.4241283,19.2742716 10.4241283,19.2472102 C10.4241283,19.2181807 10.4206558,19.1930874 10.413711,19.1729144 C10.4067663,19.1522494 10.3983333,19.1360125 10.386924,19.1232199 C10.3760107,19.1104272 10.3631133,19.1005867 10.3482315,19.0951746 C10.3338459,19.0892703 10.3189643,19.086318 10.3030905,19.086318 C10.2872167,19.086318 10.2718389,19.0887781 10.2579493,19.0946824 C10.2435637,19.1000947 10.2306662,19.1094432 10.2192569,19.122728 C10.2078477,19.1350285 10.1989186,19.1512653 10.1924699,19.1729144 C10.1855251,19.1945635 10.1815566,19.2191648 10.1815566,19.2477022 C10.1815566,19.2767317 10.185029,19.3008409 10.1919739,19.321506 C10.1984226,19.341679 10.2073515,19.3579158 10.2182648,19.3712005 C10.229178,19.3835011 10.2420755,19.3933416 10.2569572,19.3992459 C10.2713429,19.4056422 10.2872167,19.4085944 10.3030905,19.4085944 C10.3194603,19.4085944 10.3348381,19.4056422 10.3492237,19.3992459 C10.3641053,19.3928496 10.3770029,19.3835011 10.38742,19.3702164" id="Shape" fill="#939598"></path>
                    <path d="M11.1905353,19.4902102 L11.0362617,19.4902102 L10.9033186,19.3120972 L10.8452801,19.3120972 L10.8452801,19.4902102 L10.7187857,19.4902102 L10.7187857,19.0045817 L10.9306018,19.0045817 C10.9598691,19.0045817 10.9846719,19.0060576 11.0055063,19.0095019 C11.0263406,19.0124541 11.0461829,19.0198343 11.0640409,19.030659 C11.0828911,19.0414834 11.0972767,19.0557523 11.1081899,19.072973 C11.1191032,19.0901939 11.1245598,19.111843 11.1245598,19.1379203 C11.1245598,19.1738382 11.1156307,19.2033597 11.0992609,19.2255008 C11.0823949,19.2481339 11.0580882,19.2673229 11.0273328,19.2820837 L11.1905353,19.4902102 Z M11.026043,19.1753198 C11.026043,19.1584054 11.0230101,19.1441972 11.0169443,19.1326952 C11.0108784,19.1205168 10.9999599,19.1110446 10.9854018,19.1042789 C10.9744831,19.0995428 10.9623514,19.0968365 10.9483998,19.0954834 C10.935055,19.0948067 10.9186771,19.0941301 10.9004795,19.0941301 L10.8452801,19.0941301 L10.8452801,19.273424 L10.8919872,19.273424 C10.9168573,19.273424 10.9368748,19.2720709 10.9538592,19.2693646 C10.970237,19.2666583 10.9841885,19.2605691 10.9951072,19.2510969 C11.0054191,19.2416248 11.0139113,19.2314761 11.018764,19.2206508 C11.0236167,19.209149 11.026043,19.1942641 11.026043,19.1753198" id="Shape" fill="#939598"></path>
                    <polyline id="Path" fill="#939598" points="11.5774592 19.4873758 11.2912348 19.4873758 11.2912348 19.4017741 11.3710998 19.4017741 11.3710998 19.0901834 11.2912348 19.0901834 11.2912348 19.0045817 11.5774592 19.0045817 11.5774592 19.0901834 11.4970981 19.0901834 11.4970981 19.4017741 11.5774592 19.4017741 11.5774592 19.4873758"></polyline>
                    <path d="M12.1766953,19.312259 C12.1766953,19.3719357 12.1583413,19.4179161 12.121633,19.449711 C12.0849249,19.481506 12.0303587,19.4971589 11.9584305,19.4971589 C11.8869984,19.4971589 11.8329283,19.481506 11.7962201,19.449711 C11.759512,19.4179161 11.7411578,19.3719357 11.7411578,19.3127481 L11.7411578,19.0045817 L11.8671562,19.0045817 L11.8671562,19.3059001 C11.8671562,19.3396516 11.874597,19.3645984 11.8884866,19.3807405 C11.9033682,19.3973716 11.9266829,19.4056873 11.9584305,19.4056873 C11.9906742,19.4056873 12.0139888,19.3978609 12.0288705,19.3817187 C12.0432562,19.3660658 12.0506969,19.3406298 12.0506969,19.3059001 L12.0506969,19.0045817 L12.1766953,19.0045817 L12.1766953,19.312259" id="Path" fill="#939598"></path>
                    <polyline id="Path" fill="#939598" points="12.807679 19.4873758 12.6856491 19.4873758 12.4778016 19.15573 12.4778016 19.4873758 12.3622203 19.4873758 12.3622203 19.0045817 12.5130215 19.0045817 12.6916017 19.2809532 12.6916017 19.0045817 12.807679 19.0045817 12.807679 19.4873758"></polyline>
                    <path d="M13.4624734,19.2476419 C13.4624734,19.2929082 13.4520562,19.3337463 13.4317178,19.3691721 C13.4103875,19.4045979 13.3845926,19.4326433 13.3523488,19.4513403 C13.3285381,19.465609 13.3022471,19.4759415 13.2734759,19.4818458 C13.2452006,19.4872581 13.2114688,19.4902102 13.1722804,19.4902102 L12.9996528,19.4902102 L12.9996528,19.0045817 L13.1772409,19.0045817 C13.2174215,19.0045817 13.2516495,19.0080257 13.2809167,19.0149142 C13.309192,19.0213104 13.3339948,19.030659 13.353837,19.0429595 C13.3875688,19.0631325 13.4138598,19.0906859 13.4337021,19.1251277 C13.4530483,19.1600615 13.4624734,19.2008995 13.4624734,19.2476419 Z M13.3315145,19.2461658 C13.3315145,19.2141842 13.3250658,19.1871228 13.3136565,19.1644897 C13.3022471,19.1418565 13.2838931,19.1241436 13.2580982,19.111351 C13.2452006,19.1054467 13.2323032,19.1010185 13.2184137,19.0985583 C13.2050201,19.0965902 13.1851779,19.0951142 13.1573987,19.0951142 L13.1256511,19.0951142 L13.1256511,19.3982016 L13.1573987,19.3982016 C13.1876581,19.3982016 13.2094846,19.3967255 13.2233742,19.3942654 C13.2377599,19.3913132 13.2516495,19.386393 13.2645469,19.3795046 C13.2873655,19.366712 13.3047274,19.3489991 13.3151447,19.32735 C13.3260579,19.3057009 13.3315145,19.2786395 13.3315145,19.2461658" id="Shape" fill="#939598"></path>
                    <polyline id="Path" fill="#939598" points="13.9798602 19.4873758 13.6256759 19.4873758 13.6256759 19.0045817 13.9798602 19.0045817 13.9798602 19.0980098 13.7521703 19.0980098 13.7521703 19.1816551 13.9634902 19.1816551 13.9634902 19.2750834 13.7521703 19.2750834 13.7521703 19.3939476 13.9798602 19.3939476 13.9798602 19.4873758"></polyline>
                    <polyline id="Path" fill="#939598" points="14.2943599 19.3597069 14.1758024 19.6072185 14.102386 19.6072185 14.1673694 19.3597069 14.2943599 19.3597069"></polyline>
                    <path d="M14.98239,19.4966698 C14.946178,19.4966698 14.9124461,19.491289 14.8816906,19.4810169 C14.8509351,19.4702555 14.8246441,19.4546026 14.8023216,19.433569 C14.7804951,19.4125354 14.7631331,19.3861212 14.7512277,19.3548154 C14.7388263,19.3235096 14.7328737,19.2873122 14.7328737,19.2462233 C14.7328737,19.2080694 14.7383303,19.1728504 14.7502357,19.1420337 C14.762141,19.1107279 14.7785109,19.0838244 14.8008334,19.0618126 C14.8221638,19.0402898 14.8484548,19.0236585 14.8797064,19.0119189 C14.911454,19.0001792 14.9456818,18.9943094 14.9833821,18.9943094 C15.0037205,18.9943094 15.0220746,18.9957768 15.0384444,18.9977335 C15.0553104,19.0001792 15.070192,19.0031142 15.0845776,19.0070274 C15.0994593,19.0109406 15.1123567,19.015343 15.1242621,19.0207237 C15.1366636,19.0256152 15.1470808,19.0305068 15.1555137,19.03442 L15.1555137,19.1513276 L15.1416241,19.1513276 C15.1351754,19.146436 15.1277345,19.1400771 15.1183094,19.1332289 C15.1088844,19.1263808 15.0984672,19.1190435 15.0865618,19.1126845 C15.0746565,19.1053472 15.0617591,19.0994773 15.0473735,19.095075 C15.0334839,19.0901834 15.0181061,19.0877377 15.0022323,19.0877377 C14.9848703,19.0877377 14.9680044,19.0906726 14.9516345,19.0960532 C14.9357607,19.1019231 14.9208791,19.1107279 14.9074855,19.1239351 C14.8945881,19.1356747 14.8841708,19.1523059 14.8762339,19.1723611 C14.868297,19.1929056 14.8643286,19.2173632 14.8643286,19.2462233 C14.8643286,19.2765509 14.868297,19.3019868 14.8772261,19.3225312 C14.885659,19.3425865 14.8965723,19.3587286 14.9099658,19.3704683 C14.9228633,19.382208 14.9377449,19.3905235 14.9541149,19.3959043 C14.9709807,19.4007957 14.9873505,19.4032415 15.0032244,19.4032415 C15.0181061,19.4032415 15.0334839,19.4012848 15.0483655,19.3963934 C15.0637433,19.391991 15.0776329,19.3856319 15.0900342,19.3782947 C15.1009475,19.3714465 15.1108687,19.3650876 15.1197976,19.3582394 C15.1292227,19.3509022 15.1371596,19.3445431 15.1426163,19.3396516 L15.1555137,19.3396516 L15.1555137,19.4550918 C15.1436083,19.4604725 15.131703,19.4658531 15.1207898,19.4702555 C15.1093805,19.475147 15.0974751,19.4795494 15.0855698,19.4829735 C15.069696,19.4873758 15.0543182,19.4907999 15.0404286,19.4932457 C15.026539,19.4956915 15.0071928,19.4966698 14.98239,19.4966698" id="Path" fill="#939598"></path>
                    <path d="M15.7448286,19.312259 C15.7448286,19.3719357 15.7264746,19.4179161 15.6897663,19.449711 C15.6525622,19.481506 15.598492,19.4971589 15.5265638,19.4971589 C15.4551317,19.4971589 15.4010616,19.481506 15.3643534,19.449711 C15.3276453,19.4179161 15.3087951,19.3719357 15.3087951,19.3127481 L15.3087951,19.0045817 L15.4352895,19.0045817 L15.4352895,19.3059001 C15.4352895,19.3396516 15.4427303,19.3645984 15.4571159,19.3807405 C15.4710055,19.3973716 15.4943202,19.4056873 15.5265638,19.4056873 C15.5588075,19.4056873 15.5821221,19.3978609 15.5965077,19.3817187 C15.6108935,19.3660658 15.6183342,19.3406298 15.6183342,19.3059001 L15.6183342,19.0045817 L15.7448286,19.0045817 L15.7448286,19.312259" id="Path" fill="#939598"></path>
                    <path d="M16.6317774,19.1580934 C16.6317774,19.1797425 16.6278089,19.2008995 16.6203681,19.2215646 C16.6129273,19.2422296 16.601518,19.2599425 16.5876284,19.2742113 C16.5677861,19.2929082 16.5459597,19.307669 16.522149,19.3175095 C16.4978422,19.3268579 16.4680789,19.3322702 16.4323628,19.3322702 L16.3539858,19.3322702 L16.3539858,19.4902102 L16.2274914,19.4902102 L16.2274914,19.0045817 L16.4353391,19.0045817 C16.4665907,19.0045817 16.4928816,19.0075338 16.5142121,19.0124541 C16.5355425,19.0178662 16.5548886,19.0262308 16.5707624,19.0365633 C16.5906047,19.0493558 16.6059825,19.0655928 16.6159036,19.0857657 C16.6268169,19.1059387 16.6317774,19.1300479 16.6317774,19.1580934 Z M16.5347488,19.1759485 C16.5347488,19.1595385 16.5298633,19.1443441 16.520703,19.1321886 C16.5115428,19.120033 16.5005504,19.1115241 16.4889473,19.1072698 C16.4724589,19.1005842 16.4571917,19.0969375 16.4419246,19.0963297 C16.4260468,19.095722 16.4058941,19.0951142 16.3802453,19.0951142 L16.3539858,19.0951142 L16.3539858,19.2744081 L16.3979552,19.2744081 C16.4248254,19.2744081 16.4461994,19.2725849 16.4632986,19.2695459 C16.4803978,19.2658993 16.4944436,19.2598215 16.5060465,19.2500971 C16.5158175,19.2415883 16.5231457,19.2312561 16.5280312,19.2197083 C16.5316954,19.2075528 16.5347488,19.1929662 16.5347488,19.1759485" id="Shape" fill="#939598"></path>
                    <polyline id="Path" fill="#939598" points="17.1412273 19.4873758 16.7885312 19.4873758 16.7885312 19.0045817 16.9145296 19.0045817 16.9145296 19.3939476 17.1412273 19.3939476 17.1412273 19.4873758"></polyline>
                    <path d="M17.7369909,19.4902102 L17.6070242,19.4902102 L17.5727963,19.3918052 L17.3927279,19.3918052 L17.3584999,19.4902102 L17.2310135,19.4902102 L17.411578,19.0045817 L17.5564264,19.0045817 L17.7369909,19.4902102 Z M17.594734,19.3093418 L17.5092953,19.1300479 L17.4245627,19.3093418 L17.594734,19.3093418 Z" id="Shape" fill="#939598"></path>
                    <path d="M18.0966318,19.4966698 C18.0599237,19.4966698 18.0261918,19.491289 17.9954363,19.4810169 C17.9646808,19.4702555 17.9383899,19.4546026 17.9160673,19.433569 C17.8942408,19.4125354 17.8768789,19.3861212 17.8649735,19.3548154 C17.852572,19.3235096 17.8466194,19.2873122 17.8466194,19.2462233 C17.8466194,19.2080694 17.852076,19.1728504 17.8639814,19.1420337 C17.8753907,19.1107279 17.8922565,19.0838244 17.9145792,19.0618126 C17.9359095,19.0402898 17.9622006,19.0236585 17.993452,19.0119189 C18.0251997,19.0001792 18.0594276,18.9943094 18.0971279,18.9943094 C18.1174662,18.9943094 18.1358202,18.9957768 18.1526862,18.9977335 C18.1690561,19.0001792 18.1844338,19.0031142 18.1983234,19.0070274 C18.212709,19.0109406 18.2261026,19.015343 18.2385039,19.0207237 C18.2504093,19.0256152 18.2608264,19.0305068 18.2697555,19.03442 L18.2697555,19.1513276 L18.2553698,19.1513276 C18.2489211,19.146436 18.2414802,19.1400771 18.2320552,19.1332289 C18.2226301,19.1263808 18.212213,19.1190435 18.2003076,19.1126845 C18.1884023,19.1053472 18.1755048,19.0994773 18.1611192,19.095075 C18.1472296,19.0901834 18.1323478,19.0877377 18.116474,19.0877377 C18.098616,19.0877377 18.0812541,19.0906726 18.0653803,19.0960532 C18.0495065,19.1019231 18.0351208,19.1107279 18.0212312,19.1239351 C18.0083338,19.1356747 17.9979166,19.1523059 17.9899797,19.1723611 C17.9820428,19.1929056 17.9780744,19.2173632 17.9780744,19.2462233 C17.9780744,19.2765509 17.9825389,19.3019868 17.9909718,19.3225312 C17.9994047,19.3425865 18.010318,19.3587286 18.0237116,19.3704683 C18.036609,19.382208 18.0519868,19.3905235 18.0683566,19.3959043 C18.0847264,19.4007957 18.1006002,19.4032415 18.1169702,19.4032415 C18.1323478,19.4032415 18.1477256,19.4012848 18.1621112,19.3963934 C18.177489,19.391991 18.1913786,19.3856319 18.2037799,19.3782947 C18.2146932,19.3714465 18.2246144,19.3650876 18.2340395,19.3582394 C18.2429684,19.3509022 18.2509053,19.3445431 18.256362,19.3396516 L18.2697555,19.3396516 L18.2697555,19.4550918 C18.257354,19.4604725 18.2454487,19.4658531 18.2345355,19.4702555 C18.2231262,19.475147 18.2117168,19.4795494 18.1993155,19.4829735 C18.1834417,19.4873758 18.1680639,19.4907999 18.1541743,19.4932457 C18.1402847,19.4956915 18.1209386,19.4966698 18.0966318,19.4966698" id="Path" fill="#939598"></path>
                    <polyline id="Path" fill="#939598" points="18.7836699 19.4873758 18.4294856 19.4873758 18.4294856 19.0045817 18.7836699 19.0045817 18.7836699 19.0980098 18.55598 19.0980098 18.55598 19.1816551 18.7673 19.1816551 18.7673 19.2750834 18.55598 19.2750834 18.55598 19.3939476 18.7836699 19.3939476 18.7836699 19.4873758"></polyline>
                    <path d="M19.4285432,19.4902102 L19.2742696,19.4902102 L19.1413265,19.3120972 L19.0832879,19.3120972 L19.0832879,19.4902102 L18.9572896,19.4902102 L18.9572896,19.0045817 L19.1691057,19.0045817 C19.1978769,19.0045817 19.2226797,19.0060576 19.2435141,19.0095019 C19.2643485,19.0124541 19.2841907,19.0198343 19.3020488,19.030659 C19.3208988,19.0414834 19.3352846,19.0557523 19.3461977,19.072973 C19.3571111,19.0901939 19.3625676,19.111843 19.3625676,19.1379203 C19.3625676,19.1738382 19.3541347,19.2033597 19.3372688,19.2255008 C19.3204028,19.2481339 19.2965921,19.2673229 19.2653405,19.2820837 L19.4285432,19.4902102 Z M19.2640509,19.1753198 C19.2640509,19.1584054 19.261018,19.1441972 19.254952,19.1326952 C19.2488862,19.1205168 19.2385743,19.1110446 19.2234095,19.1042789 C19.2130975,19.0995428 19.2009658,19.0968365 19.1870143,19.0954834 C19.1736694,19.0948067 19.1572915,19.0941301 19.139094,19.0941301 L19.0832879,19.0941301 L19.0832879,19.273424 L19.1299951,19.273424 C19.1548652,19.273424 19.1754892,19.2720709 19.191867,19.2693646 C19.2082448,19.2666583 19.2221964,19.2605691 19.2337216,19.2510969 C19.2440335,19.2416248 19.2519191,19.2314761 19.2567718,19.2206508 C19.2616245,19.209149 19.2640509,19.1942641 19.2640509,19.1753198" id="Shape" fill="#939598"></path>
                    <polyline id="Path" fill="#939598" points="19.9052533 19.4873758 19.551069 19.4873758 19.551069 19.0045817 19.9052533 19.0045817 19.9052533 19.0980098 19.6770674 19.0980098 19.6770674 19.1816551 19.8883873 19.1816551 19.8883873 19.2750834 19.6770674 19.2750834 19.6770674 19.3939476 19.9052533 19.3939476 19.9052533 19.4873758"></polyline>
                    <polyline id="Path" fill="#939598" points="20.252347 19.5379543 20.0772329 19.5379543 20.0772329 19.3597069 20.252347 19.3597069 20.252347 19.5379543"></polyline>
                    <path d="M17.5916465,18.8643713 C17.5802371,18.9451396 17.5450171,18.9855237 17.4864825,18.9855237 C17.429436,18.9855237 17.3952081,18.9451396 17.3833028,18.8643713 L17.4398532,18.8643713 C17.447294,18.8957038 17.4631678,18.9110218 17.4879707,18.9110218 C17.5122774,18.9110218 17.5281512,18.8957038 17.535096,18.8643713 L17.5916465,18.8643713" id="Path" fill="#939598"></path>
                </g>
            </g>
        </g>
    </g>
</svg>