<?xml version="1.0" encoding="UTF-8"?>
<svg width="96px" height="60px" viewBox="0 0 96 60" version="1.1" xmlns="http://www.w3.org/2000/svg" xmlns:xlink="http://www.w3.org/1999/xlink">
    <title>4BB293FE-1DBE-49C9-BCD6-4ACA74AC89C8</title>
    <g id="Style-Guide" stroke="none" stroke-width="1" fill="none" fill-rule="evenodd">
        <g id="Ikony-dostawy-i-płatności" transform="translate(-258.000000, -1386.000000)" fill-rule="nonzero">
            <g id="Payment/Twisto-Copy" transform="translate(258.000000, 1386.000000)">
                <path d="M86,0 C91.5228475,0 96,4.4771525 96,10 L96,50 C96,55.5228475 91.5228475,60 86,60 L10,60 C4.4771525,60 0,55.5228475 0,50 L0,10 C0,4.4771525 4.4771525,0 10,0 L86,0 Z M86,2 L10,2 C5.581722,2 2,5.581722 2,10 L2,50 C2,54.418278 5.581722,58 10,58 L86,58 C90.418278,58 94,54.418278 94,50 L94,10 C94,5.581722 90.418278,2 86,2 Z" id="Border" fill="#EDEDED"></path>
                <rect id="Background" fill="#FFFFFF" x="2" y="2" width="92" height="56" rx="8"></rect>
                <g id="Group" transform="translate(18.000000, 17.000000)" fill="#000000">
                    <g id="Path">
                        <path d="M11.5287547,3.35284313 C12.2469284,2.45027719 12.7342765,1.2383971 12.6057416,0 C11.5544363,0.0525248514 10.27152,0.696891133 9.5287744,1.60016481 C8.86186768,2.3736793 8.27160049,3.63630218 8.42548255,4.82278542 C9.60562675,4.92564064 10.7846815,4.23008351 11.5287547,3.35284313"></path>
                        <path d="M12.5923333,5.05444771 C10.8784792,4.95187252 9.42128448,6.03178367 8.60283178,6.03178367 C7.78392808,6.03178367 6.53061047,5.10613754 5.17504265,5.13108634 C3.4106868,5.15712473 1.77356857,6.15946549 0.878233116,7.75365787 C-0.963319663,10.9428267 0.392248163,15.6734798 2.18306096,18.2708785 C3.05271984,19.5558942 4.10080732,20.9707913 5.48182369,20.919967 C6.78665153,20.8685216 7.29809009,20.0710359 8.88416429,20.0710359 C10.469073,20.0710359 10.9297716,20.919967 12.3110109,20.8942494 C13.7433905,20.8685165 14.6388831,19.6085922 15.5085318,18.3223239 C16.5061935,16.8574733 16.9146015,15.4430395 16.9402882,15.3653927 C16.9145964,15.3396751 14.1782554,14.2849368 14.1528829,11.1222748 C14.1270493,8.47413325 16.3012167,7.21452968 16.403543,7.13641449 C15.1757702,5.31186836 13.2574005,5.10613754 12.5923333,5.05444771"></path>
                    </g>
                    <g transform="translate(20.317687, 1.470619)">
                        <path d="M7.19755755,0 C10.9225909,0 13.5164666,2.57995492 13.5164666,6.33616915 C13.5164666,10.1057946 10.8692158,12.6991506 7.10414997,12.6991506 L2.97982497,12.6991506 L2.97982497,19.2892883 L0,19.2892883 L0,0 L7.19755755,0 L7.19755755,0 Z M2.9798199,10.1859821 L6.39896404,10.1859821 C8.99335161,10.1859821 10.4699191,8.78255637 10.4699191,6.34957531 C10.4699191,3.91685393 8.99335161,2.52657977 6.41230653,2.52657977 L2.9798199,2.52657977 L2.9798199,10.1859821 L2.9798199,10.1859821 Z" id="Shape"></path>
                        <path d="M14.2950337,15.2925117 C14.2950337,12.8327132 16.170898,11.3222877 19.4971514,11.1350954 L23.328423,10.9079391 L23.328423,9.82526835 C23.328423,8.26120801 22.2773255,7.32550599 20.5215589,7.32550599 C18.8581762,7.32550599 17.8204212,8.12739082 17.5679121,9.38410237 L14.8539387,9.38410237 C15.0135571,6.84411644 17.1686154,4.9727124 20.6277971,4.9727124 C24.0202563,4.9727124 26.1886571,6.77733514 26.1886571,9.59785245 L26.1886571,19.2892934 L23.4346612,19.2892934 L23.4346612,16.9767234 L23.3684555,16.9767234 C22.5570364,18.5407837 20.7874155,19.5298558 18.9515838,19.5298558 C16.2109254,19.5298558 14.2950337,17.8188267 14.2950337,15.2925117 Z M23.328423,14.0226486 L23.328423,12.9131655 L19.8825837,13.1269155 C18.1663379,13.2473266 17.1953054,14.0092424 17.1953054,15.2123242 C17.1953054,16.4419638 18.2063704,17.2441032 19.7496605,17.2441032 C21.7584479,17.2441032 23.328423,15.853829 23.328423,14.0226486 Z" id="Shape"></path>
                        <path d="M28.7886897,24.4625992 L28.7886897,22.1232169 C29.0011663,22.176592 29.4800112,22.176592 29.7196896,22.176592 C31.0499863,22.176592 31.7685096,21.6152696 32.2073221,20.1716254 C32.2073221,20.144808 32.4603429,19.3161108 32.4603429,19.3027047 L27.405013,5.22668605 L30.5177612,5.22668605 L34.057003,16.6693797 L34.1098662,16.6693797 L37.649113,5.22668605 L40.682313,5.22668605 L35.4401628,20.0243969 C34.2433114,23.4333036 32.8596346,24.5293805 29.959368,24.5293805 C29.7196947,24.5293805 29.0011713,24.5025631 28.7886897,24.4625992 Z" id="Path"></path>
                    </g>
                </g>
            </g>
        </g>
    </g>
</svg>