<?xml version="1.0" encoding="UTF-8"?>
<svg width="96px" height="60px" viewBox="0 0 96 60" version="1.1" xmlns="http://www.w3.org/2000/svg" xmlns:xlink="http://www.w3.org/1999/xlink">
    <title>26F226B1-D881-452E-BA81-170786B1EF2C</title>
    <g id="Style-Guide" stroke="none" stroke-width="1" fill="none" fill-rule="evenodd">
        <g id="Ikony-dostawy-i-płatności" transform="translate(-258.000000, -1466.000000)" fill-rule="nonzero">
            <g id="Payment/Twisto-Copy-2" transform="translate(258.000000, 1466.000000)">
                <path d="M86,0 C91.5228475,0 96,4.4771525 96,10 L96,50 C96,55.5228475 91.5228475,60 86,60 L10,60 C4.4771525,60 0,55.5228475 0,50 L0,10 C0,4.4771525 4.4771525,0 10,0 L86,0 Z M86,2 L10,2 C5.581722,2 2,5.581722 2,10 L2,50 C2,54.418278 5.581722,58 10,58 L86,58 C90.418278,58 94,54.418278 94,50 L94,10 C94,5.581722 90.418278,2 86,2 Z" id="Border" fill="#EDEDED"></path>
                <rect id="Background" fill="#FFFFFF" x="2" y="2" width="92" height="56" rx="8"></rect>
                <g id="G_Pay_Lockup_1_" transform="translate(15.000000, 17.000000)">
                    <g id="Pay_Typeface_3_" transform="translate(28.381262, 1.381092)" fill="#3C4043">
                        <path d="M2.42294455,11.2641326 L2.42294455,18.9298246 L0,18.9298246 L0,0 L6.42332696,0 C8.05124283,0 9.43938815,0.544834308 10.5751434,1.63450292 C11.7361377,2.72417154 12.3166348,4.0545809 12.3166348,5.62573099 C12.3166348,7.23489279 11.7361377,8.56530214 10.5751434,9.64230019 C9.45200765,10.7192982 8.06386233,11.251462 6.42332696,11.251462 L2.42294455,11.251462 L2.42294455,11.2641326 Z M2.42294455,2.33138402 L2.42294455,8.93274854 L6.47380497,8.93274854 C7.43288719,8.93274854 8.24053537,8.60331384 8.87151052,7.95711501 C9.51510516,7.31091618 9.84321224,6.52534113 9.84321224,5.63840156 C9.84321224,4.76413255 9.51510516,3.99122807 8.87151052,3.34502924 C8.24053537,2.67348928 7.44550669,2.34405458 6.47380497,2.34405458 L2.42294455,2.34405458 L2.42294455,2.33138402 Z" id="Letter_p_3_"></path>
                        <path d="M18.6516252,5.5497076 C20.4435946,5.5497076 21.856979,6.03118908 22.8917782,6.99415205 C23.9265774,7.95711501 24.4439771,9.2748538 24.4439771,10.9473684 L24.4439771,18.9298246 L22.134608,18.9298246 L22.134608,17.1306043 L22.033652,17.1306043 C21.0367113,18.6130604 19.699044,19.3479532 18.0332696,19.3479532 C16.6072658,19.3479532 15.4210325,18.9298246 14.4619503,18.0808967 C13.5028681,17.2319688 13.023327,16.1803119 13.023327,14.9132554 C13.023327,13.5701754 13.5281071,12.505848 14.5376673,11.7202729 C15.5472275,10.9220273 16.8975143,10.5292398 18.5759082,10.5292398 C20.0145315,10.5292398 21.2007648,10.7953216 22.1219885,11.3274854 L22.1219885,10.7699805 C22.1219885,9.92105263 21.7938815,9.21150097 21.1250478,8.61598441 C20.4562141,8.02046784 19.673805,7.72904483 18.7778203,7.72904483 C17.4275335,7.72904483 16.3548757,8.29922027 15.5724665,9.45224172 L13.4397706,8.10916179 C14.6133843,6.39863548 16.3548757,5.5497076 18.6516252,5.5497076 Z M15.5219885,14.9512671 C15.5219885,15.5847953 15.7869981,16.1169591 16.3296367,16.5350877 C16.8596558,16.9532164 17.490631,17.168616 18.2099426,17.168616 C19.2321224,17.168616 20.1407266,16.788499 20.9357553,16.0282651 C21.7307839,15.2680312 22.134608,14.3810916 22.134608,13.3547758 C21.3774379,12.7592593 20.3300191,12.4551657 18.9797323,12.4551657 C17.9954111,12.4551657 17.1751434,12.6959064 16.5189293,13.1647173 C15.8500956,13.6588694 15.5219885,14.254386 15.5219885,14.9512671 Z" id="Letter_a_3_"></path>
                        <polygon id="Letter_y_3_" points="37.618738 5.96783626 29.5422562 24.6189084 27.0435946 24.6189084 30.0470363 18.0935673 24.7216061 5.96783626 27.3590822 5.96783626 31.1954111 15.2680312 31.2458891 15.2680312 34.981262 5.96783626"></polygon>
                    </g>
                    <g id="G_Mark_1_">
                        <path d="M21.1666922,11.0994152 C21.1666922,10.3062378 21.0960229,9.54727096 20.9647801,8.81744639 L10.8086042,8.81744639 L10.8086042,12.9987329 L16.6577438,13 C16.4204971,14.3912281 15.6570172,15.577193 14.4871893,16.3678363 L14.4871893,19.0806043 L17.9689101,19.0806043 C20.001912,17.191423 21.1666922,14.3988304 21.1666922,11.0994152 Z" id="Blue_500" fill="#4285F4"></path>
                        <path d="M14.4884512,16.3678363 C13.5192734,17.0241715 12.2712046,17.4080897 10.8111281,17.4080897 C7.99066922,17.4080897 5.59801147,15.4999025 4.74114723,12.9277778 L1.14963671,12.9277778 L1.14963671,15.7254386 C2.92898662,19.2706628 6.58611855,21.7034113 10.8111281,21.7034113 C13.7312811,21.7034113 16.1845124,20.7391813 17.9701721,19.0793372 L14.4884512,16.3678363 Z" id="Green_500_1_" fill="#34A853"></path>
                        <path d="M4.40294455,10.8523392 C4.40294455,10.130117 4.52282983,9.43196881 4.74114723,8.77563353 L4.74114723,5.97797271 L1.14963671,5.97797271 C0.413919694,7.44395712 0,9.09873294 0,10.8523392 C0,12.6059454 0.415181644,14.2607212 1.14963671,15.7267057 L4.74114723,12.9290448 C4.52282983,12.2727096 4.40294455,11.5745614 4.40294455,10.8523392 Z" id="Yellow_500_1_" fill="#FABB05"></path>
                        <path d="M10.8111281,4.29532164 C12.4049713,4.29532164 13.8322371,4.84649123 14.9591587,5.92348928 L18.0446272,2.82807018 C16.170631,1.07573099 13.7274952,0 10.8111281,0 C6.5873805,0 2.92898662,2.43274854 1.14963671,5.97797271 L4.74114723,8.77563353 C5.59801147,6.20350877 7.99066922,4.29532164 10.8111281,4.29532164 Z" id="Red_500" fill="#E94235"></path>
                    </g>
                </g>
            </g>
        </g>
    </g>
</svg>